<svg xmlns="http://www.w3.org/2000/svg" xmlns:xlink="http://www.w3.org/1999/xlink" viewBox="0 0 538.46 531"><defs><style>.cls-1{stroke-linecap:square;fill:url(#Безымянный_градиент_79);stroke:url(#Безымянный_градиент_31);}.cls-1,.cls-10,.cls-11,.cls-9{stroke-linejoin:round;}.cls-1,.cls-10,.cls-11,.cls-2,.cls-9{stroke-width:5px;}.cls-12,.cls-2,.cls-3,.cls-4,.cls-5,.cls-6,.cls-8{stroke-miterlimit:10;}.cls-2{fill:url(#Новый_образец_градиентной_залив);stroke:url(#Безымянный_градиент_31-2);}.cls-12,.cls-3,.cls-5,.cls-8{stroke:#000;}.cls-3{stroke-width:4px;fill:url(#Новый_образец_градиентной_залив-2);}.cls-4,.cls-8{stroke-width:2px;}.cls-4{fill:url(#Безымянный_градиент_19);stroke:url(#Новый_образец_градиентной_зал_2);}.cls-5{fill:url(#Новый_образец_градиентной_залив-3);}.cls-10,.cls-11,.cls-6,.cls-8,.cls-9{fill:none;}.cls-6{stroke-width:1.99px;stroke:url(#Новый_образец_градиентн_копия);}.cls-7{fill:#18183f;}.cls-10,.cls-11,.cls-8,.cls-9{stroke-linecap:round;}.cls-9{stroke:url(#Безымянный_градиент_31-3);}.cls-10{stroke:url(#Безымянный_градиент_31-4);}.cls-11{stroke:url(#Безымянный_градиент_31-5);}.cls-12{fill:#6d2f84;stroke-width:3.92px;}</style><linearGradient id="Безымянный_градиент_79" x1="605.9" y1="191.97" x2="605.14" y2="191.97" gradientUnits="userSpaceOnUse"><stop offset="0" stop-color="#5c389c"/><stop offset="0.08" stop-color="#4c2a81"/><stop offset="0.17" stop-color="#3f1f6a"/><stop offset="0.27" stop-color="#351759"/><stop offset="0.39" stop-color="#2e104d"/><stop offset="0.56" stop-color="#2a0d46"/><stop offset="1" stop-color="#290c44"/></linearGradient><linearGradient id="Безымянный_градиент_31" x1="17.42" y1="191.97" x2="523.93" y2="191.97" gradientUnits="userSpaceOnUse"><stop offset="0" stop-color="#6d2f84"/><stop offset="1"/></linearGradient><linearGradient id="Новый_образец_градиентной_залив" x1="2.5" y1="363.61" x2="535.96" y2="363.61" gradientUnits="userSpaceOnUse"><stop offset="0" stop-color="#c880eb"/><stop offset="1" stop-color="#59369a"/></linearGradient><linearGradient id="Безымянный_градиент_31-2" x1="-0.09" y1="359.05" x2="538.48" y2="368.45" xlink:href="#Безымянный_градиент_31"/><linearGradient id="Новый_образец_градиентной_залив-2" x1="24.74" y1="363.04" x2="510.49" y2="363.04" xlink:href="#Новый_образец_градиентной_залив"/><linearGradient id="Безымянный_градиент_19" x1="376.55" y1="287.32" x2="516.45" y2="419.28" xlink:href="#Новый_образец_градиентной_залив"/><linearGradient id="Новый_образец_градиентной_зал_2" x1="364.59" y1="276.03" x2="512.94" y2="415.97" gradientUnits="userSpaceOnUse"><stop offset="0"/><stop offset="1" stop-color="#59369a"/></linearGradient><linearGradient id="Новый_образец_градиентной_залив-3" x1="408.26" y1="267" x2="421.26" y2="267" xlink:href="#Новый_образец_градиентной_залив"/><linearGradient id="Новый_образец_градиентн_копия" x1="368.12" y1="104.54" x2="515.41" y2="243.46" gradientTransform="translate(-3 172)" xlink:href="#Новый_образец_градиентной_зал_2"/><linearGradient id="Безымянный_градиент_31-3" x1="160.26" y1="94" x2="263.26" y2="94" xlink:href="#Безымянный_градиент_31"/><linearGradient id="Безымянный_градиент_31-4" x1="330.91" y1="97.11" x2="433.91" y2="97.11" gradientTransform="matrix(-1, 0, 0, 1, 688.82, 0)" xlink:href="#Безымянный_градиент_31"/><linearGradient id="Безымянный_градиент_31-5" x1="159.26" y1="94" x2="259.26" y2="94" xlink:href="#Безымянный_градиент_31"/></defs><g id="Слой_2" data-name="Слой 2"><g id="tv"><path class="cls-1" d="M521.43,209.5c-116.7-7.67-240.5-10.94-370.67-8q-66.7,1.5-130.84,5c3.93-5.15,56.54-27,61.84-27,57-3.52,117.79-5.43,182-5,66.82.45,129.93,3.4,188.89,8a23,23,0,0,1,8,1.42l47.95,17.75C509.53,202,517,205.35,521.43,209.5Z"/><path class="cls-2" d="M535.76,341.5a939.67,939.67,0,0,0-10.42-121.3l-.71-5.65a6.28,6.28,0,0,0-1-2.58,10.86,10.86,0,0,0-2.16-2.47,3416.1,3416.1,0,0,0-381.67-9q-61.2,2-119.84,6l-.08.08a14.22,14.22,0,0,0-4,8.87c-.07.82-.16,1.64-.31,2.45a794.31,794.31,0,0,0,.1,286.72,16.8,16.8,0,0,1,.2,1.89,14,14,0,0,0,4.05,8.91,14.25,14.25,0,0,0,9.47,4.07l.91,0c73.94,5.53,153.32,8.89,237.54,9s163.38-3.17,237.27-8.57a22.57,22.57,0,0,0,11.61-4.19c8.06-5.85,8.12-9.41,8.12-10.19A939.57,939.57,0,0,0,535.76,341.5ZM64.34,290.9s-2-33,47-44,174.34,0,174.34,0,43.66,5,51.66,40,0,142.72,0,142.72-3,31.28-42,42.28-177,8-177,8-39.91,0-51-42S64.34,290.9,64.34,290.9Z"/><path class="cls-3" d="M505.05,240a17.08,17.08,0,0,0-14.7-14.88c-47-6.22-217.48-24.59-442.68.32a17.07,17.07,0,0,0-15.07,15C27.8,282.33,15.52,412.05,37,492.84a17,17,0,0,0,14.59,12.53c42.2,4.7,200,18.42,428.67-7A17.07,17.07,0,0,0,495,485C502.09,452,519.18,354.92,505.05,240ZM295.34,471.9c-39,11-177,8-177,8s-39.91,0-51-42-3-147-3-147-2-33,47-44,174.34,0,174.34,0,43.66,5,51.66,40,0,142.72,0,142.72S334.34,460.9,295.34,471.9Z"/><rect class="cls-4" x="397.26" y="237" width="83" height="218" rx="9.7"/><rect x="412.26" y="248" width="5" height="94" rx="2.5"/><rect x="397.26" y="366" width="82" height="3"/><rect x="397.26" y="374" width="82" height="3"/><rect x="397.26" y="382" width="82" height="3"/><rect x="397.26" y="391" width="82" height="3"/><rect x="397.26" y="400" width="82" height="3"/><rect x="397.26" y="409" width="82" height="3"/><rect x="397.26" y="418" width="82" height="3"/><rect x="397.26" y="427" width="82" height="3"/><rect x="397.26" y="436" width="82" height="3"/><rect x="397.26" y="445" width="82" height="3"/><rect class="cls-5" x="408.26" y="264" width="13" height="6" rx="3"/><rect class="cls-6" x="398.26" y="237" width="81" height="218" rx="9.7" transform="translate(877.53 692) rotate(180)"/><circle class="cls-7" cx="453.76" cy="264.5" r="19.5"/><circle class="cls-7" cx="453.76" cy="318.5" r="19.5"/><g id="tubler"><circle cx="454.76" cy="264.5" r="15.5"/><line class="cls-8" x1="441.26" y1="253" x2="448.26" y2="257"/><line class="cls-8" x1="437.75" y1="260.61" x2="445.78" y2="261.39"/><line class="cls-8" x1="437.79" y1="268.67" x2="445.74" y2="267.33"/><line class="cls-8" x1="441.88" y1="275.69" x2="448.65" y2="271.31"/></g><g id="tubler-2" data-name="tubler"><circle cx="454.72" cy="318.75" r="15.5"/><line class="cls-8" x1="445.71" y1="303.47" x2="451.02" y2="309.54"/><line class="cls-8" x1="439.91" y1="309.52" x2="447.24" y2="312.88"/><line class="cls-8" x1="437.32" y1="317.15" x2="445.27" y2="318.48"/><line class="cls-8" x1="438.89" y1="325.12" x2="446.72" y2="323.19"/></g><line class="cls-9" x1="162.76" y1="4.5" x2="260.76" y2="183.5"/><polyline class="cls-10" points="257.41 185.71 355.41 6.71 259.75 187.5"/><line class="cls-11" x1="256.76" y1="185.5" x2="161.76" y2="2.5"/><g id="screen"><path class="cls-12" d="M353.53,253.52A15.61,15.61,0,0,0,341,240.15c-117.69-22.17-241.35-5-275.47.61A15.61,15.61,0,0,0,53.1,251.54c-20.6,67,.68,190.85,8.56,231.25a15.62,15.62,0,0,0,15.92,12.62l262.86-9.64a15.64,15.64,0,0,0,14.75-12.48C370.24,400.56,358,288.92,353.53,253.52Zm-16.19,176.1s-3,31.28-42,42.28-177,8-177,8-39.91,0-51-42-3-147-3-147-2-33,47-44,174.34,0,174.34,0,43.66,5,51.66,40S337.34,429.62,337.34,429.62Z"/></g></g></g></svg>