<svg width="198" height="177" viewBox="0 0 198 177" fill="none" xmlns="http://www.w3.org/2000/svg">
<g clip-path="url(#clip0)">
<path d="M12.2323 128.787C39.3617 141.7 70.4393 140.974 97.5329 127.958C123.779 115.34 145.289 93.0675 158.458 67.2621C165.815 52.8289 170.645 37.0626 171.846 20.9044C172.113 17.2228 163.099 16.2973 162.82 19.9204C160.812 47.3323 148.319 73.3855 130.163 93.8864C112.669 113.625 88.4132 129.361 61.824 132.385C46.4353 134.126 31.2242 131.337 17.3263 124.719C15.6147 123.897 12.5699 123.553 11.0454 124.998C9.5043 126.422 10.6454 128.036 12.2323 128.787Z" fill="#0A0A0A"/>
<path d="M34.0147 109.668C23.0325 112.955 12.5087 117.512 2.0179 122.111C0.772107 122.655 0.05884 123.526 1.00263 124.718C9.66235 135.654 18.3176 146.627 26.9728 157.601C28.6949 159.775 37.518 159.423 35.0222 156.228C26.3459 145.271 17.7073 134.318 9.05201 123.345C8.70255 124.2 8.36965 125.076 8.04122 125.914C18.532 121.316 29.0559 116.759 40.038 113.472C41.8566 112.916 41.7979 111.33 40.3883 110.371C38.6462 109.164 36.0091 109.075 34.0147 109.668Z" fill="#0A0A0A"/>
</g>
</svg>
