<svg width="184" height="64" viewBox="0 0 184 64" fill="none" xmlns="http://www.w3.org/2000/svg">
<g clip-path="url(#clip0)">
<path d="M176.224 63.8392H7.77638C3.61701 63.8392 0.242065 61.5976 0.242065 58.8349V5.16499C0.242065 2.40237 3.61701 0.160767 7.77638 0.160767H176.224C180.383 0.160767 183.758 2.40237 183.758 5.16499V58.8349C183.758 61.5976 180.383 63.8392 176.224 63.8392Z" fill="#BFB086" stroke="black" stroke-miterlimit="10"/>
<path d="M166.995 54.6734H16.037C12.5265 54.6734 9.6842 52.7855 9.6842 50.4539V6.79237C9.6842 4.46072 12.5265 2.57288 16.037 2.57288H166.995C170.505 2.57288 173.347 4.46072 173.347 6.79237V50.4539C173.347 52.7855 170.505 54.6734 166.995 54.6734Z" fill="#FCEDC5" stroke="black" stroke-miterlimit="10"/>
<path d="M11.379 53.5477L2.17896 62.2311" stroke="black" stroke-miterlimit="10"/>
<path d="M3.14734 1.44727L11.8631 3.37691" stroke="black" stroke-miterlimit="10"/>
<path d="M182.789 2.73364L172.137 4.34168" stroke="black" stroke-miterlimit="10"/>
<path d="M170.684 53.8694L181.337 62.2312" stroke="black" stroke-miterlimit="10"/>
</g>
</svg>
