<svg xmlns="http://www.w3.org/2000/svg" viewBox="0 0 323.33 135.28"><defs><style>.cls-1,.cls-2,.cls-5{fill:#48cc74;}.cls-1,.cls-2,.cls-4,.cls-6{stroke:#000;stroke-miterlimit:10;}.cls-1{stroke-width:1.23px;}.cls-3,.cls-6{fill:#6bff7b;}.cls-4{fill:none;}.cls-7{fill:#231f20;}</style></defs><g id="body"><path class="cls-1" d="M37.74,56.3S40.68,47,52.9,36.16,75.77,22.35,75.77,22.35L82,42.58s-26.12,4.89-31.78,8.29A62.82,62.82,0,0,1,37.74,56.3Z" transform="translate(-11.8 -18.64)"/><path class="cls-2" d="M110.79,45.23s3.54-7.1,14.75-14.31,20.16-8.23,20.16-8.23l-2.33,13.64s-16.89,4.08-21.87,6.1A51.46,51.46,0,0,1,110.79,45.23Z" transform="translate(-11.8 -18.64)"/><path class="cls-2" d="M140.18,34.36s4.88-6.26,17.3-11.1,21.38-4.08,21.38-4.08l-5,12.91s-17.36.65-22.64,1.64A51.15,51.15,0,0,1,140.18,34.36Z" transform="translate(-11.8 -18.64)"/><path class="cls-2" d="M169.54,30.42s7.06-3.61,20.37-2.76S211,33,211,33l-10,9.6s-16-6.73-21.22-8.06A51.2,51.2,0,0,1,169.54,30.42Z" transform="translate(-11.8 -18.64)"/><path class="cls-2" d="M196.33,39.31s7.82-1.39,20.28,3.33,18.62,11.27,18.62,11.27l-12.34,6.27S209.56,49,205,46.24A51.39,51.39,0,0,1,196.33,39.31Z" transform="translate(-11.8 -18.64)"/><path class="cls-2" d="M218.07,57.31s7.74,1.76,17.41,10.94,12.77,17.63,12.77,17.63l-13.8,1s-8-15.43-11.11-19.8A51.27,51.27,0,0,1,218.07,57.31Z" transform="translate(-11.8 -18.64)"/><path class="cls-2" d="M229.9,83.23S237,86.79,244.17,98s8.18,20.18,8.18,20.18l-13.64-2.37s-4-16.89-6-21.88A51.46,51.46,0,0,1,229.9,83.23Z" transform="translate(-11.8 -18.64)"/><path class="cls-3" d="M229.9,132.77c-21.38-14-42.83-16.63-70.44-19.7-26.72-3-48.27-3.07-62-1.1a122.11,122.11,0,0,1-15.13,1.1L82,57.35s39.49-23.24,67.53-28c18.62-3.19,37.09-1.16,52.47,8.34,7.89,4.87,13.62,10.87,20.59,20.44,27.23,37.37,16.92,64.73,35.06,75.19,15.75,9.08,44.85.69,57.19-19.92C325.69,95.18,326,76,308.68,65.11,297.8,58.27,284.94,54.77,271.91,64c-13.21,9.32-9.78,31.73,2.56,36.38,13.07,4.94,26-2.41,26.93-7.28,3.83-21-19.53-6.21-25.4-10.59-2.31-1.73,12.09-12.48,23.74-8.17,8.06,3,13.25,11.79,12.52,19.15C311,106.5,290.8,116.94,275,112.6c-19.58-5.38-21-30.34-20.87-32.24.6-9.83,4.7-22.19,16.08-28.27,12.83-6.86,54.35-8.77,63,26.61,6.51,26.62-10.15,49.61-27.83,59.94-22.14,12.94-48.61,10.25-65.87.76C235.11,137,235.62,136.52,229.9,132.77Z" transform="translate(-11.8 -18.64)"/><path class="cls-4" d="M229.9,132.77c-21.38-14-42.83-16.63-70.44-19.7-26.72-3-48.27-3.07-62-1.1a122.11,122.11,0,0,1-15.13,1.1L82,57.35s39.49-23.24,67.53-28c18.62-3.19,37.09-1.16,52.47,8.34,7.89,4.87,13.62,10.87,20.59,20.44,27.23,37.37,16.92,64.73,35.06,75.19,15.75,9.08,44.85.69,57.19-19.92C325.69,95.18,326,76,308.68,65.11,297.8,58.27,284.94,54.77,271.91,64c-13.21,9.32-9.78,31.73,2.56,36.38,13.07,4.94,26-2.41,26.93-7.28,3.83-21-19.53-6.21-25.4-10.59-2.31-1.73,12.09-12.48,23.74-8.17,8.06,3,13.25,11.79,12.52,19.15C311,106.5,290.8,116.94,275,112.6c-19.58-5.38-21-30.34-20.87-32.24.6-9.83,4.7-22.19,16.08-28.27,12.83-6.86,54.35-8.77,63,26.61,6.51,26.62-10.15,49.61-27.83,59.94-22.14,12.94-48.61,10.25-65.87.76C235.11,137,235.62,136.52,229.9,132.77Z" transform="translate(-11.8 -18.64)"/><path class="cls-5" d="M86.16,69.16c0-1.23,6.15-26.81-10.33-29.27s-45,2.21-57.08,32.72-4.42,45.26.5,47.23,58.79,3,68.38-2.46c7.17-4-.74-19.44-1.47-32.47A115.4,115.4,0,0,1,86.16,69.16Z" transform="translate(-11.8 -18.64)"/><path class="cls-4" d="M86.16,69.16c0-1.23,6.15-26.81-10.33-29.27s-45,2.21-57.08,32.72-4.42,45.26.5,47.23,58.79,3,68.38-2.46c7.17-4-.74-19.44-1.47-32.47A115.4,115.4,0,0,1,86.16,69.16Z" transform="translate(-11.8 -18.64)"/><circle class="cls-6" cx="39.42" cy="57.17" r="21.65"/><circle class="cls-7" cx="30.32" cy="52.25" r="2.71"/></g><g id="leg2"><path class="cls-2" d="M222.18,119.73c-2.77-5.31-9-12.84-12.88-17.72-4.71-5.9-10.28-10.93-16-15.85-4.39-3.81-10.8-6.29-16.17-2.71-6.85,4.56-4.63,20.77-3.24,27.53,2.28,11.07,8.65,21.78,9.94,32.86-4.52-1.28-11.34-4-16-1.24-2.08,1.22-3.18,4-1.87,6.12,1.57,2.51,5.65,2.42,8.29,2.77,5.51.72,11.29,2.13,16.88,1.9,5.81-.25,6.11-2.29,6.7-7.94.81-7.78-.43-15.14-.95-22.87,5.29-1.84,11.89,7.47,16.92,11.83,3.87,3.35,9.67,2.56,11.33-2.87C226.67,126.7,223.24,121.75,222.18,119.73Z" transform="translate(-11.8 -18.64)"/></g><g id="leg1"><path class="cls-2" d="M121.46,86.5c-5.88-3-22.06-10.59-23.25,2-.46,4.94,2.34,9.41,7.29,12.65,4.2,2.75,11.73,5.1,10.71,11.44-.8,4.94-7.45,14.46-11.73,16.32-4,1.74-11-1.23-14,2.5-6.2,7.61,12,6.95,15.51,7.11s7.29.38,10.52-1.12c6.34-2.94,11.82-8.86,16.78-13.64,7.22-7,13.31-15.12,6.35-24.29C134.54,92.83,127.55,89.64,121.46,86.5Z" transform="translate(-11.8 -18.64)"/></g></svg>