<svg xmlns="http://www.w3.org/2000/svg" viewBox="0 0 551 263.06"><defs><style>.cls-1{isolation:isolate;}.cls-2{fill:#7fffa7;}.cls-3{fill:#84ff7f;opacity:0.7;mix-blend-mode:multiply;}.cls-4{fill:#dcefe5;}.cls-5{fill:#fff;}</style></defs><g class="cls-1"><g id="Layer_1" data-name="Layer 1"><g id="_805707435" data-name="805707435"><path d="M556,62.29c-15.58-30.91-44.35-43.76-78-39C451.54,27,433.63,44.72,430,71c-3.67,26.84,19.27,48.26,45.7,44.38C485,114,502.7,102.7,508,90.85a25.11,25.11,0,0,0,.16-4.42,22.44,22.44,0,0,0-4.82-13.14c-.34-.25-.64-.5-1-.75-6.17-4.16-14.83-6.6-21.48-2.52-3,2.59-5.49,5.82-5.59,10a20.59,20.59,0,0,0,2,9.27h0a18.22,18.22,0,0,0,2.56,1.06,8.15,8.15,0,0,0,7.91.7q-2.9,9.54-15.25,7.55c-7.58.07-14.36-4-19.07-9.56-13.43-15.69,1.44-36,16.25-43,27.28-12.91,55,14,66.44,36.33,14.28,27.92.4,65.68-23.9,84.63a.85.85,0,0,0-.72.2c-36.94,26.51-87,2.48-116.61-24.47C381.43,130.4,372.51,114.57,362,99.84c-10.82-15.22-24.18-25.83-41-33.71C305.83,59,289.11,54,272.29,53.44c-7.59-.22-12.84-6-20.13-6-7.76,0-14.1,10.3-22.35,1.07-6.06-6.78-13.69,11-22.95,3.33-2.34-1.93-5.7-1.19-8.15-.23a14.47,14.47,0,0,0-4,2.6c-5.27,4.38-10.34,4.54-15.79,2.38A38,38,0,0,1,173.74,48c-3.36-8.57,8.15-19.8,10.49-27.66.61-2.05,2.66-7.27.37-9.08C178,6,165.34,13.05,159,15.76a238.89,238.89,0,0,0-40.5,22.67C114,41.55,95.67,53.93,96.3,57.65h0c-.08-.29-.38-.23-.68,0a26.94,26.94,0,0,0-9.84.92c-11.91,3.69-18.9,13.12-22.51,24.13C56,91,47.73,98.15,40.89,106.89A116.63,116.63,0,0,0,24,136.8c-1.59,4.23-15.43,45.69-1.09,39.47l.29-.15c4.09,10.8,24.08,3.71,32,2.45,24.2-3.87,49,7.28,73.45,6.85,7.48-.13,18.19-1,26.11-5.15a.24.24,0,0,0,.16.22,24.88,24.88,0,0,1,3.15,1.56c2.43,1.7,4.82,3.4,5.23,3.62s.7.35,1.05.53a49.83,49.83,0,0,0,5.18,3.26c7.61,4,15.71,6.92,23.54,10.39,1.83.82,3.65,1.6,5.49,2.35-8.86,9.29-19,17.47-29.12,25.36a107.29,107.29,0,0,0-18.82,4.19c-6.9,2.24-16.69,5.08-21.22,11.42-2.39,3.35-3,5.88,1.36,7.71,2.55,1.06,5.32.4,7.82-.24,5.6-1.42,9.79-4.49,15.57-5.37-6,6.08-16.81,13.43-16.76,19.21.06,6.42,6.42,10.36,12.1,6.18a67.41,67.41,0,0,0,9.57-9c5.45-5.89,10.92-10.68,19.18-12a46.23,46.23,0,0,0,9.51-2.64c4.56-1.77,11.38-4.72,9.27-10.29,10.29-7.72,19.72-16.66,29.05-25.5,5.58,1.39,11.25,2.56,17,3.45,15.88,2.45,31.88,1.88,47.83.67,17.78-1.35,35.7-2.09,53.1-6.25a175.1,175.1,0,0,0,16.36,8.25c-15.42.45-36.5,2.63-40.51,6.93-4.22,4.54-3.9,9.45,2.61,11.23,4.51,1.23,10.64-1.55,14.88-2.62a75.28,75.28,0,0,1,18.18-2.14c-11.19,3.07-23.2,7.4-27.07,15.22-6.82,13.8,13,6.46,18.54,3.3,12-6.82,23.53-10.78,37.3-11.78,7.33-.53,14.09.54,20-3.37l.06-.07c5.32-6.33,1.16-13-5.25-16.17-2.14-1-4.13-2.08-6.09-3.16-.67-.26-1.33-.48-2-.7a2.48,2.48,0,0,0,.13-.35,74.13,74.13,0,0,1-8.65-5.83c-.07-.05-.08-.1-.13-.15-2-1.29-4.05-2.61-6.05-4,13.35,1.81,28.47.1,41.24.06a447.46,447.46,0,0,0,60.53-4.45c30-4.16,57.39-25,75.19-48.7C573.18,124.14,570.21,90.52,556,62.29Z" transform="translate(-16.44 -9.33)"/><path class="cls-2" d="M104.11,180.38c-13.14-1.88-26.56-6.52-39.93-5.6-10.34.71-30.56,8.56-39.31.51,4.12-2.07,8.18-4.78,12.29-6.76,6.53-3.15,13.76-3.78,20.89-4.38C71.5,163,85.29,166,98.62,167.52c7.26.85,20.63.35,25.11-6.17a7.28,7.28,0,0,0-1.4-7.64.94.94,0,0,0,0,.44c4.37,15.25-23.49,10.68-29.2,10.12-8.76-.88-17.38-2.49-26.19-2.88-15.06-.68-27,3.55-40.24,9.91-9.09,4.37-7.16-5.64-6.38-11,1.8-12.46,5.88-23.76,11.58-34.94,5.07-9.93,11.57-18.89,18.57-27.52,3.69-4.56,8.4-8.45,12.13-13a67.49,67.49,0,0,0-2.42,16A74.27,74.27,0,0,1,65.24,84.9c5-14.19,15-25.47,32.63-23.69,17.3,1.73,25.62,12,35.44,24.67.19.25.75-.23.57-.5-6.27-9.21-10.6-17.1-20.68-22.53A46,46,0,0,0,97,57.73C103.8,50.11,114.36,44,122.69,38.5A242.92,242.92,0,0,1,163,17.5c6.64-2.76,22.23-7.22,15.69,6.32-2.3,4.71-5.57,9.17-7.5,14-4,10.07-.7,17,5.79,25.08,4,5,7.71,9.75,10,15.82,4,10.56-5.68,17.72-13.46,22.29-2.79,1.65-7.6,3.58-11,6.27-2,3.36-1.14,6.27.51,9.69a23.28,23.28,0,0,1,4.81,7.86c.63,2-.7,4.31-1.89,5.73-3.42,4.14-3.45,7.24-3.09,11.29,4.12,13.13,5.27,27.81-9.28,35.58a.44.44,0,0,0-.26.07l-.25.18c-.72.36-1.43.73-2.21,1.06C136.56,184.74,119,182.51,104.11,180.38Z" transform="translate(-16.44 -9.33)"/><path class="cls-3" d="M61.27,99.21a45.32,45.32,0,0,0-.82,15.11c2.83-17.94,11.17-35.78,30.13-40.91,13.47-3.63,26.9-.16,38.36,7-8.16-10-16.38-17.68-31.07-19.15-17.63-1.78-27.59,9.5-32.63,23.69a72.75,72.75,0,0,0-4.4,13A1.29,1.29,0,0,1,61.27,99.21Z" transform="translate(-16.44 -9.33)"/><path class="cls-2" d="M514.59,181.83c-21,13.63-45.9,15.38-70.15,17-13.25.92-26.5.89-39.76,1-11,.09-24,2.2-34.74-.87a1.5,1.5,0,0,0-.3,0c-5.66-4-11.27-8.11-17-11.81-6.63-4.28-13.31-8.44-20.16-12.33-6.18-3.51-14.29-6.2-20.21-10.71-.31-.18-.64-.33-.94-.5-.75-.45-1.68-1.12-2.64-1.68a.34.34,0,0,0,0,.34C316,174,334.81,180.66,346,187.93c7.83,5.08,15.46,10.45,23.26,15.6,3.84,2.54,7.79,5.92,12,8.53,5.45,2.54,11.07,4.8,16.16,8,2.26,1.41,7.82,4.73,6.73,8.25-1.28,4.08-7.83,4.84-11.38,5.71a27.29,27.29,0,0,1-10.69.76,95.34,95.34,0,0,0-21.23,4.68,79,79,0,0,0-11.28,5.51c-.87.54-1.78,1-2.67,1.56s-1.85,1.31-2.77,2c-2,1.58-4.59,3.18-7.25,3.26-3.83.11-8.55-2.7-5.79-7.22,3.86-6.31,13-8.09,19.56-9.76,5.48-1.41,11-3,16.06-5.63,1.34-.7,2.63-1.56,3.93-2.37-2.06.6-4.46,1.21-7.06,1.86a54.78,54.78,0,0,0-17.48-.1,68.49,68.49,0,0,0-8.82,1.93c-1.25.44-2.5.86-3.77,1.2-2.26.6-4.53,1.79-6.86,2-3.07.27-6.13-1.17-5.83-4.65.56-6.85,12.48-8.15,18.22-8,8.83-1.26,17.65-1.41,26.51-1.62.18.07.36.13.53.21,3.65-.46,7.31-.83,10.94-1.41-.38-.61-4.18-.95-9.73-1-14-8.08-28.35-15.08-41.82-24.21-3-2-6-4.07-9.13-6.18-1.93-1.24-3.85-2.54-5.75-4l-.75-.57c-9-6.5-17.78-13.73-23.88-22.39-7.56-10.71,3.28-10,10.48-10,10.37,0,21.54,3.55,31.42,6.16,8.3,2.21,16.32,4.85,24.46,7.55,5.54,1.83,11.5,5.58,17.14,6.43.32,0,1-.67.55-.8-8.44-2.53-17-8.2-25.4-11.38-10.55-4-21.61-6.62-32.6-9-5.3-1.14-28.05-7-32.16,1.13-2.25,10.79,10.24,20.06,18.07,25.83,6.41,4.7,12.27,10.05,18.34,15.17,8.06,5.73,16.24,11.32,24.75,16.32-30.69,6.82-65.6,8.16-96.3,4.32a136.6,136.6,0,0,1-16-3c.3-.27.59-.57.89-.84,1.83-1.71,3.78-3.48,5.78-5.28a1.19,1.19,0,0,1,.39-.65c1.92-1.64,3.67-3.51,5.74-5,.45-.33.93-.65,1.41-1-.13,0-.25,0-.39.05,6.49-6.19,12.52-12.95,15.4-20.75,6-16.26-56.24-17.4-62.81-16.87-.34,0-.94.82-.38.88,10,.88,20.15,2.6,30.18,3.88,9.64,1.22,37.5,5.34,23.44,21.74a264,264,0,0,1-20.34,20.92,45.45,45.45,0,0,1-5.23,4.61l.15,0c-10.73,9.68-21.93,18.9-32.82,28.19a20.89,20.89,0,0,0-1.63,3.44,1.33,1.33,0,0,1-1,.87,1.4,1.4,0,0,0,1-.29c1.84-1.17,3.62-2.39,5.38-3.65-2.49,7.71-16,6.09-21.74,9.13-7.27,3.86-12.43,9.43-18,15.19-3.47,4.88-9.07,9.17-13.67,4.32-2.37-2.51-.89-6.67,1-8.93,2.44-2.93,5.68-5,8.93-6.9l2.29-2.07a44.14,44.14,0,0,0,6.47-6.27c2.16-2.81,1.75-4.7-1.06-6.43-.25-.15-.64.29-.5.51,1.06,1.74-.1,4-2.31,6.44a17.38,17.38,0,0,0-8,.8c-4,1.46-8.44,3.55-12.82,3.41-12-.37,5.4-9.5,8.36-11.09a125.49,125.49,0,0,1,21-6.59c3.52-1.47,7.24-2.35,10.83-3.62l-.32,0a158.46,158.46,0,0,0,18-14.67c2.33-2.13,4.81-4.36,7.27-6.67,5.45-5.48,8.1-10.76,9-18,.58-6-4.26-7-7.26-7.68a36.81,36.81,0,0,0-12.86-.67,93.63,93.63,0,0,1-17.09.67c5.28,2.79,11.19,2.32,17.09,2.39,4.5.07,9,.32,13.45.71,7.57.65,1.37,12.63-1.59,16.91-14.44-5.7-28.64-13.82-43.51-21a19,19,0,0,0,5.62-5.42c6.48-9.91,7-22,2.87-32.61-.08-.21-.18-.39-.24-.59-.35-.88-.72-1.75-1.13-2.6a1,1,0,0,0,0-.75c-.58-1.13,1-2.51,3-4.12a37,37,0,0,1,5.67-5.57,3.88,3.88,0,0,0,.12-3.81c-2.2-4.2-11.79-11.37-5.47-15.19,4.89-2.94,9.89-5.63,14.55-8.92,6.89-4.9,10.45-11.33,10-19.76-.37-6.72-4.45-12.28-8.79-17.72a15.61,15.61,0,0,0,3.27.51c6.95.46,10.66-12.54,19.52-5.2,2.08,1.72,5.8,3.59,8.52,1.92.92-.57,3.24-1.66,4.22-2.86,6.61-8,9.06-1.84,13.4.7,2.28,1.31,7.35-.41,9.28-1.43,9.6-5,19.15.87,28.95,1.59a141.75,141.75,0,0,1,64.49,21.55c17.77,11.08,28.54,29.06,40.21,45.72,11.3,16.14,24.4,29.61,41.14,40,27.18,16.86,63.86,26.12,91.72,7.22,13-6.38,21.92-20.21,29-32.14,10.48-17.59,10.52-40.91,2.92-59.4C527.19,49.58,490.27,27.91,460.66,48c-22.79,15.49-19.24,59,14.53,54.09a41.68,41.68,0,0,0,11.51-3.27,15.87,15.87,0,0,0,4-4.93,11.84,11.84,0,0,0,1-9,24.82,24.82,0,0,0-3.88-5.1,9.25,9.25,0,0,0-3.28,2.94,1.32,1.32,0,0,0,0,1.46c1.56,2,.35,4.14-1.58,4.12a7.75,7.75,0,0,1-.94-1c-.2-.09-.42-.17-.56-.24.06-.1.13-.22.2-.32a10.3,10.3,0,0,1,.79-11.11C485,71.91,490,71,494,72.45a10.56,10.56,0,0,1,4.07,2.82,19,19,0,0,1,3.39,3c10,10.24-3.6,23.11-11.11,28.16-7,4.72-15.64,6.13-23.89,5.21-24.93-2.77-34.92-27.42-30.33-49.28,5.67-27,32.09-35.53,56.61-35.65,26.8-.13,46.21,16.1,58.58,38.38,10.87,19.58,14.67,42.4,8.69,64.09C553.82,151.73,533.43,169.59,514.59,181.83Z" transform="translate(-16.44 -9.33)"/><path d="M93.92,79.25A28.71,28.71,0,1,0,122.62,108,28.71,28.71,0,0,0,93.92,79.25Z" transform="translate(-16.44 -9.33)"/><path class="cls-4" d="M93.92,133.67A25.72,25.72,0,1,1,119.63,108,25.71,25.71,0,0,1,93.92,133.67Z" transform="translate(-16.44 -9.33)"/><path d="M36.81,147.82c-.7-1.7-2.63-1.26-3.73-.13-1.83,1.06-2.85,4.65.48,4.92C35.8,152.8,37.61,149.76,36.81,147.82Z" transform="translate(-16.44 -9.33)"/><path d="M101.77,114.15c-1.23,5.18-5.37,8.64-9.26,7.73s-6.05-5.87-4.82-11,5.37-8.66,9.26-7.73S103,109,101.77,114.15Z" transform="translate(-16.44 -9.33)"/><path class="cls-5" d="M95.59,108.83c-.39,1.57-1.64,2.62-2.83,2.34s-1.84-1.77-1.46-3.35,1.63-2.63,2.81-2.35S96,107.24,95.59,108.83Z" transform="translate(-16.44 -9.33)"/><path class="cls-3" d="M141.12,164.12c6.06-2.5,10.91-10.37,9.14-17-.75-2.82-2.74-5.85-6.11-5.48-3.86.41-6.69,3.47-8.9,6.45a26.84,26.84,0,0,0-2.36,6.74C131.78,160.66,134.19,167,141.12,164.12Z" transform="translate(-16.44 -9.33)"/><path class="cls-3" d="M559.73,119c-2.28-2.28-2.27-6.18-2.8-9.14-1-5.57-2.2-11.12-3.75-16.57-3.53-12.33-8.27-24.75-15.94-35.14-17.38-23.52-52.15-31.54-77.41-15.2-11.69,7.56-20,19.86-18.12,34.35s12,25.47,23.46,33.87a1.37,1.37,0,0,1,.48,1.86,8.8,8.8,0,0,1-1,1.05,42.56,42.56,0,0,0,11-.16c9.25-1.37,27-12.65,32.29-24.51a25,25,0,0,0,.17-4.41,22.45,22.45,0,0,0-4.83-13.14c-.34-.25-.64-.51-1-.75-6.16-4.16-14.82-6.6-21.48-2.53-3,2.59-5.48,5.82-5.58,10a20.56,20.56,0,0,0,2,9.26l0,0a19.73,19.73,0,0,0,2.56,1.06,8.2,8.2,0,0,0,7.91.7q-2.9,9.52-15.26,7.55c-7.57.07-14.36-4-19.06-9.56-13.44-15.7,1.43-36,16.25-43.06,27.27-12.9,55,14,66.44,36.33,14.28,27.92.39,65.68-23.91,84.63a.9.9,0,0,0-.72.2c-13.85,9.95-29.55,12.78-45.32,11a4.8,4.8,0,0,1-.83,1c-6.22,6-17.94,5.12-25.84,4.52a98.22,98.22,0,0,1-41.45-12.59c-16.3-9.22-30.84-21.07-47.74-29.32-17.24-8.44-35.85-14.18-55.13-15.06-18.46-.85-35.56,4.24-53.59,7.19-14.53,2.38-30.9,3.81-43.88-4.54C187,121,191.85,107.08,193.47,97c1.45-9.17-.13-17.6-5.8-25.1-.83-1.11-1.7-2.19-2.55-3.27C186.4,81,175.5,87.18,165.18,91.46c-4.65,1.93-11.82,4.57-14.06,9.46-3.06,6.73,3.89,9.86,7.53,13.49,3.17,3.15,4.54,6.55,1.85,10.53-1.37,2-4,2.55-5.9,3.93-5.75,4.33,2.22,9.9,4.05,13.23,2.63,4.79,2.16,10.25.59,15.33-3.57,11.67-18.82,15.92-29.59,14.73-2.64-.29-6.83-2.3-5.38-5.71s6.65-13.83-2.87-10.75a46.07,46.07,0,0,1-11.2,2.35c-19,1.15-38.42-5.81-57.37-2-8.76,1.74-14.67,6.15-22.26,10.13-3.55,1.87-7.34,3.42-11.09,1.22a7.68,7.68,0,0,1-2.83-3c-.78,7.57.38,13,6.23,10.42l.28-.15c4.09,10.8,24.08,3.72,32,2.45,24.19-3.87,49,7.28,73.44,6.85,7.48-.12,18.2-1,26.12-5.14a.23.23,0,0,0,.15.22,23.54,23.54,0,0,1,3.15,1.55c2.43,1.71,4.83,3.41,5.23,3.63s.7.34,1.05.52a47.62,47.62,0,0,0,5.18,3.26c7.62,4,15.71,6.92,23.55,10.4,1.82.81,3.64,1.59,5.48,2.35a207.85,207.85,0,0,1-18.48,16.82c8.25-3.43,15.35-9.32,21.29-16.94,3.15-4,8.12-10.22,7.39-15.74-.87-6.5-9.42-6.11-14.35-6.48-4.07-.31-18.33-.6-17-7.74,1.91-10.66,18.07-12.42,26.49-12.19a1.26,1.26,0,0,1,1.23.89c9.19.83,19.92,6.75,23.68,13.94,5.61,10.71-2.51,21.47-9.62,29.22a168.75,168.75,0,0,1-18.89,17.56c-7.08,5.64-14.84,10-22.19,15.24-4.15,2.95-8.61,6.49-13.92,5.64-2.92-.47-3.14-3.74-3.27-6.28-10.32,1.7-17.83,10-28.17,11.74-2.35.39-4.1,0-5.09-1-.21,1.57.62,2.89,3.14,4s5.33.41,7.83-.23c5.6-1.42,9.79-4.49,15.56-5.38-1.18,1.21-2.57,2.46-4,3.74,3.35-1.59,9.53-3.52,9.08,1.36-.51,5.57-7.18,10.87-11,14.27-1.16,1-4.74,4.83-7.72,6.37,2.39,1.79,5.8,2,9-.34a68.54,68.54,0,0,0,9.56-9c5.46-5.88,10.92-10.67,19.18-12a45.87,45.87,0,0,0,9.52-2.64c4.55-1.77,11.37-4.72,9.27-10.28,10.29-7.72,19.72-16.66,29-25.5,5.59,1.39,11.25,2.55,17,3.44,15.88,2.46,31.88,1.89,47.84.68,17.77-1.35,35.7-2.1,53.1-6.25a176.32,176.32,0,0,0,16.36,8.25c-3.5.1-7.28.29-11.09.58,3.23.13,6.45.13,9.56.09s6.22-.23,8.95.75c-4.46-1.92-8.75-5.55-12.3-7.75-9.34-5.8-18.51-11.85-27.92-17.52-15.94-9.6-32.22-19.75-41.76-36.28a1.34,1.34,0,0,1,1.09-2c.26-2,1.89-3.17,5.92-1.94,11.8,3.57,19.77,15.49,29.16,22.85,11.11,8.71,23.67,15.71,35.59,23.27,7.06,4.49,16.37,10.06,18.28,18.89a1.37,1.37,0,0,1-.95,1.67,12.09,12.09,0,0,1-6.24-.81,9.49,9.49,0,0,1,2.43,1.59,1.38,1.38,0,0,1-1,2.32c-10,.35-20,.87-29.62,3.7a92.12,92.12,0,0,1-12.7,3c-4.17.59-9.69.33-9.87-2.7-1.86,3.64-.67,7.07,4.53,8.49,4.51,1.23,10.65-1.55,14.88-2.61a74.92,74.92,0,0,1,18.19-2.14,88.79,88.79,0,0,0-16.55,6c.89-.35,1.76-.72,2.65-1,2.94-1,10.52-4.43,12.64-.22,1.85,3.71-4.94,8.09-7.21,9.73a89.74,89.74,0,0,1-12.06,7.5,10,10,0,0,0-.9,1.16A45.28,45.28,0,0,0,347,247.8C359,241,370.54,237,384.3,236c7.34-.54,14.09.54,20-3.38,0,0,.05,0,.05-.06,5.32-6.34,1.17-13-5.25-16.17-2.14-1-4.13-2.09-6.09-3.17-.67-.25-1.32-.48-2-.7a1.4,1.4,0,0,0,.13-.34,76,76,0,0,1-8.65-5.84c-.06,0-.08-.1-.13-.15-2-1.28-4-2.61-6-4,13.35,1.82,28.47.1,41.24.07a449,449,0,0,0,60.53-4.45c30-4.17,57.4-25,75.19-48.7A69.84,69.84,0,0,0,567,113.88C564.58,118.38,562,121.22,559.73,119Z" transform="translate(-16.44 -9.33)"/></g></g></g></svg>