<svg viewBox="0 0 30 29" fill="none" xmlns="http://www.w3.org/2000/svg">
<g clip-path="url(#clip0)">
<path d="M25.1805 0H4.67664C2.33446 0 0.428589 1.90587 0.428589 4.24805V24.752C0.428589 27.0941 2.33446 29 4.67664 29H25.1805C27.5227 29 29.4286 27.0941 29.4286 24.752V4.24805C29.4286 1.90587 27.5227 0 25.1805 0ZM14.9852 22.0898C10.7688 22.0898 7.33875 18.6598 7.33875 14.4434C7.33875 10.227 10.7688 6.79688 14.9852 6.79688C19.2016 6.79688 22.6317 10.227 22.6317 14.4434C22.6317 18.6598 19.2016 22.0898 14.9852 22.0898ZM23.4813 8.49609C22.0759 8.49609 20.9325 7.35266 20.9325 5.94727C20.9325 4.54187 22.0759 3.39844 23.4813 3.39844C24.8867 3.39844 26.0302 4.54187 26.0302 5.94727C26.0302 7.35266 24.8867 8.49609 23.4813 8.49609Z" fill="#8B8B8B"/>
<path d="M23.4813 5.09766C23.0125 5.09766 22.6317 5.47843 22.6317 5.94727C22.6317 6.4161 23.0125 6.79688 23.4813 6.79688C23.9502 6.79688 24.3309 6.4161 24.3309 5.94727C24.3309 5.47843 23.9502 5.09766 23.4813 5.09766Z" fill="#8B8B8B"/>
<path d="M14.9852 8.49609C11.7063 8.49609 9.03796 11.1644 9.03796 14.4434C9.03796 17.7223 11.7063 20.3906 14.9852 20.3906C18.2642 20.3906 20.9325 17.7223 20.9325 14.4434C20.9325 11.1644 18.2642 8.49609 14.9852 8.49609Z" fill="#8B8B8B"/>
</g>
</svg>
