<svg width="33" height="32" viewBox="0 0 33 32" fill="none" xmlns="http://www.w3.org/2000/svg">
<path d="M4.76695 1.62494C2.49838 1.62494 1.01514 3.06946 1.01514 4.96808C1.01514 6.82477 2.45419 8.31048 4.6799 8.31048H4.72295C7.0359 8.31048 8.47533 6.82477 8.47533 4.96808C8.43209 3.06946 7.0359 1.62494 4.76695 1.62494Z" fill="#3A3A3A"/>
<path d="M1.40717 10.9521H8.03916V30.3002H1.40717V10.9521Z" fill="#3A3A3A"/>
<path d="M24.3176 10.498C20.7399 10.498 18.3408 13.7581 18.3408 13.7581V10.9521H11.7086V30.3002H18.3405V19.4955C18.3405 18.9171 18.3837 18.3395 18.5589 17.9259C19.0384 16.7709 20.1294 15.5743 21.9616 15.5743C24.3614 15.5743 25.3212 17.3486 25.3212 19.9496V30.3002H31.9527V19.2064C31.9527 13.2635 28.6807 10.498 24.3176 10.498Z" fill="#3A3A3A"/>
</svg>
