<svg width="113" height="66" viewBox="0 0 113 66" fill="none" xmlns="http://www.w3.org/2000/svg">
<path d="M1.528 3.308H14.954C16.718 3.308 18.384 3.48767 19.952 3.847C21.5527 4.17367 22.941 4.74533 24.117 5.562C25.3257 6.346 26.273 7.424 26.959 8.796C27.6777 10.1353 28.037 11.8177 28.037 13.843C28.037 16.293 27.4 18.3837 26.126 20.115C24.852 21.8137 22.99 22.8917 20.54 23.349L29.36 38H20.197L12.945 24.133H9.172V38H1.528V3.308ZM9.172 17.665H13.68C14.366 17.665 15.0847 17.6487 15.836 17.616C16.62 17.5507 17.3223 17.4037 17.943 17.175C18.5637 16.9137 19.07 16.5217 19.462 15.999C19.8867 15.4763 20.099 14.7413 20.099 13.794C20.099 12.912 19.9193 12.2097 19.56 11.687C19.2007 11.1643 18.7433 10.7723 18.188 10.511C17.6327 10.217 16.9957 10.021 16.277 9.923C15.5583 9.825 14.856 9.776 14.17 9.776H9.172V17.665ZM55.4004 33.884C54.2244 35.3867 52.7381 36.5463 50.9414 37.363C49.1448 38.1797 47.2828 38.588 45.3554 38.588C43.5261 38.588 41.7948 38.294 40.1614 37.706C38.5608 37.118 37.1561 36.285 35.9474 35.207C34.7714 34.0963 33.8404 32.7733 33.1544 31.238C32.4684 29.7027 32.1254 27.9877 32.1254 26.093C32.1254 24.1983 32.4684 22.4833 33.1544 20.948C33.8404 19.4127 34.7714 18.106 35.9474 17.028C37.1561 15.9173 38.5608 15.068 40.1614 14.48C41.7948 13.892 43.5261 13.598 45.3554 13.598C47.0541 13.598 48.5894 13.892 49.9614 14.48C51.3661 15.068 52.5421 15.9173 53.4894 17.028C54.4694 18.106 55.2208 19.4127 55.7434 20.948C56.2661 22.4833 56.5274 24.1983 56.5274 26.093V28.396H39.4754C39.7694 29.8007 40.4064 30.9277 41.3864 31.777C42.3664 32.5937 43.5751 33.002 45.0124 33.002C46.2211 33.002 47.2338 32.7407 48.0504 32.218C48.8998 31.6627 49.6348 30.9603 50.2554 30.111L55.4004 33.884ZM49.1774 23.398C49.2101 22.1567 48.8018 21.095 47.9524 20.213C47.1031 19.331 46.0088 18.89 44.6694 18.89C43.8528 18.89 43.1341 19.0207 42.5134 19.282C41.8928 19.5433 41.3538 19.8863 40.8964 20.311C40.4718 20.703 40.1288 21.1767 39.8674 21.732C39.6388 22.2547 39.5081 22.81 39.4754 23.398H49.1774ZM61.4872 0.955998H68.8372V23.594L76.9712 14.186H85.9872L76.5302 24.917L86.2322 38H76.9712L68.9352 25.946H68.8372V38H61.4872V0.955998ZM112.137 38H105.081V34.766H104.983C104.721 35.2233 104.378 35.6807 103.954 36.138C103.562 36.5953 103.072 37.0037 102.484 37.363C101.896 37.7223 101.226 38.0163 100.475 38.245C99.7234 38.4737 98.9067 38.588 98.0247 38.588C96.1627 38.588 94.6437 38.3103 93.4677 37.755C92.3244 37.167 91.426 36.3667 90.7727 35.354C90.152 34.3413 89.7274 33.149 89.4987 31.777C89.3027 30.405 89.2047 28.9187 89.2047 27.318V14.186H96.5547V25.848C96.5547 26.534 96.571 27.2527 96.6037 28.004C96.669 28.7227 96.816 29.3923 97.0447 30.013C97.306 30.6337 97.6817 31.14 98.1717 31.532C98.6944 31.924 99.4294 32.12 100.377 32.12C101.324 32.12 102.092 31.9567 102.68 31.63C103.268 31.2707 103.709 30.8133 104.003 30.258C104.329 29.67 104.542 29.0167 104.64 28.298C104.738 27.5793 104.787 26.828 104.787 26.044V14.186H112.137V38ZM0.597 41.186H7.653V44.42H7.751C7.97967 43.9627 8.30633 43.5053 8.731 43.048C9.15567 42.5907 9.662 42.1823 10.25 41.823C10.838 41.4637 11.5077 41.1697 12.259 40.941C13.0103 40.7123 13.827 40.598 14.709 40.598C16.571 40.598 18.0737 40.892 19.217 41.48C20.3603 42.0353 21.2423 42.8193 21.863 43.832C22.5163 44.8447 22.9573 46.037 23.186 47.409C23.4147 48.781 23.529 50.2673 23.529 51.868V65H16.179V53.338C16.179 52.652 16.1463 51.9497 16.081 51.231C16.0483 50.4797 15.9013 49.7937 15.64 49.173C15.4113 48.5523 15.0357 48.046 14.513 47.654C14.023 47.262 13.3043 47.066 12.357 47.066C11.4097 47.066 10.642 47.2457 10.054 47.605C9.466 47.9317 9.00867 48.389 8.682 48.977C8.388 49.5323 8.192 50.1693 8.094 50.888C7.996 51.6067 7.947 52.358 7.947 53.142V65H0.597V41.186ZM27.8517 53.093C27.8517 51.1983 28.1947 49.4833 28.8807 47.948C29.5667 46.4127 30.4977 45.106 31.6737 44.028C32.8824 42.9173 34.2871 42.068 35.8877 41.48C37.5211 40.892 39.2524 40.598 41.0817 40.598C42.9111 40.598 44.6261 40.892 46.2267 41.48C47.8601 42.068 49.2647 42.9173 50.4407 44.028C51.6494 45.106 52.5967 46.4127 53.2827 47.948C53.9687 49.4833 54.3117 51.1983 54.3117 53.093C54.3117 54.9877 53.9687 56.7027 53.2827 58.238C52.5967 59.7733 51.6494 61.0963 50.4407 62.207C49.2647 63.285 47.8601 64.118 46.2267 64.706C44.6261 65.294 42.9111 65.588 41.0817 65.588C39.2524 65.588 37.5211 65.294 35.8877 64.706C34.2871 64.118 32.8824 63.285 31.6737 62.207C30.4977 61.0963 29.5667 59.7733 28.8807 58.238C28.1947 56.7027 27.8517 54.9877 27.8517 53.093ZM35.2017 53.093C35.2017 54.8897 35.7081 56.3433 36.7207 57.454C37.7661 58.5647 39.2197 59.12 41.0817 59.12C42.9437 59.12 44.3811 58.5647 45.3937 57.454C46.4391 56.3433 46.9617 54.8897 46.9617 53.093C46.9617 51.2963 46.4391 49.8427 45.3937 48.732C44.3811 47.6213 42.9437 47.066 41.0817 47.066C39.2197 47.066 37.7661 47.6213 36.7207 48.732C35.7081 49.8427 35.2017 51.2963 35.2017 53.093ZM56.1419 41.186H64.0799L70.1069 57.356H70.2049L75.7909 41.186H83.1899L73.7819 65H65.9909L56.1419 41.186ZM100.813 62.011H100.715C99.8988 63.285 98.8045 64.1997 97.4325 64.755C96.0932 65.3103 94.6722 65.588 93.1695 65.588C92.0588 65.588 90.9808 65.4247 89.9355 65.098C88.9228 64.804 88.0245 64.3467 87.2405 63.726C86.4565 63.1053 85.8358 62.3377 85.3785 61.423C84.9212 60.5083 84.6925 59.4467 84.6925 58.238C84.6925 56.866 84.9375 55.7063 85.4275 54.759C85.9502 53.8117 86.6362 53.0277 87.4855 52.407C88.3675 51.7863 89.3638 51.3127 90.4745 50.986C91.5852 50.6267 92.7285 50.3653 93.9045 50.202C95.1132 50.0387 96.3055 49.9407 97.4815 49.908C98.6902 49.8753 99.8008 49.859 100.813 49.859C100.813 48.5523 100.34 47.5233 99.3925 46.772C98.4778 45.988 97.3835 45.596 96.1095 45.596C94.9008 45.596 93.7902 45.8573 92.7775 46.38C91.7975 46.87 90.9155 47.556 90.1315 48.438L86.2115 44.42C87.5835 43.146 89.1842 42.1987 91.0135 41.578C92.8428 40.9247 94.7375 40.598 96.6975 40.598C98.8535 40.598 100.617 40.8757 101.989 41.431C103.394 41.9537 104.505 42.7377 105.321 43.783C106.171 44.8283 106.759 46.1187 107.085 47.654C107.412 49.1567 107.575 50.9043 107.575 52.897V65H100.813V62.011ZM99.0005 54.563C98.4452 54.563 97.7428 54.5957 96.8935 54.661C96.0768 54.6937 95.2765 54.8243 94.4925 55.053C93.7412 55.2817 93.0878 55.6247 92.5325 56.082C92.0098 56.5393 91.7485 57.1763 91.7485 57.993C91.7485 58.875 92.1242 59.5283 92.8755 59.953C93.6268 60.3777 94.4108 60.59 95.2275 60.59C95.9462 60.59 96.6322 60.492 97.2855 60.296C97.9715 60.1 98.5758 59.8223 99.0985 59.463C99.6212 59.1037 100.029 58.6463 100.323 58.091C100.65 57.5357 100.813 56.8823 100.813 56.131V54.563H99.0005Z" fill="black"/>
</svg>
