<svg xmlns="http://www.w3.org/2000/svg" viewBox="0 0 859.46 954.37"><defs><style>.a{fill:#f7e1cd;}.a,.b,.c,.d,.e,.f,.g,.h{stroke:#000;stroke-miterlimit:10;stroke-width:3px;}.b{fill:#fff;}.c{fill:none;}.e{fill:#9f3e3e;}.f{fill:#f0c9aa;}.g{fill:#623400;}.h{fill:#422814;}</style></defs><path class="a" d="M488.6,133.7q-4.47-.19-9-.2l-3.3,0h0c-139.71,2.23-252.43,145.23-252.43,321.32A395.53,395.53,0,0,0,239.28,565h0C275.07,688.22,369.15,776.19,479.6,776.19c122.67,0,225.17-108.54,250-253.37v0a402.84,402.84,0,0,0,5.73-68C735.33,281.16,625.67,139.66,488.6,133.7ZM341,416.33a45.52,45.52,0,0,1,1.24-10.65l46.41-10.83,36,5.25a45.61,45.61,0,0,1,2.94,16.23c0,24.7-19.39,44.72-43.3,44.72S341,441,341,416.33ZM588.9,461.05c-23.91,0-43.31-20-43.31-44.72A45.58,45.58,0,0,1,551,394.65l48.61,1.09,32,13.37a45.19,45.19,0,0,1,.57,7.22C632.21,441,612.82,461.05,588.9,461.05Z" transform="translate(-46.08 -22.43)"/><path class="b" d="M394.64,646.73l90.28-6L561.58,651s-80.92,26.4-88.58,26.4-74.11-19.59-74.11-19.59Z" transform="translate(-46.08 -22.43)"/><line class="c" x1="400.09" y1="618.34" x2="382.2" y2="646.87"/><line class="c" x1="431.43" y1="617.49" x2="432.07" y2="654.53"/><line class="c" x1="450.33" y1="616.23" x2="473.34" y2="646.01"/><line class="d" x1="370.86" y1="622.82" x2="366.45" y2="637.92"/><line class="d" x1="480.58" y1="625.15" x2="489.87" y2="636.01"/><path class="e" d="M564.15,653.17s-83.64,18.31-92.69,20.31c-9.26,2-54.34-12.27-60.64-12.27-8.87,0-14.5-7.74-15.81-11a.11.11,0,0,0-.2.06c1.3,6.51,11.4,41.94,77,43.83C536,696,564.15,653.17,564.15,653.17Z" transform="translate(-46.08 -22.43)"/><path class="e" d="M506.45,622.17l-35.16,1.71-26.22-3.54s-66.91,29.33-50.21,29.93c.13,0,84.78-7.41,92.25-8.39,6.83-.91,63.1,8.42,75.17,10.44a.37.37,0,0,0,.23-.69Z" transform="translate(-46.08 -22.43)"/><path class="b" d="M573.5,617.77" transform="translate(-46.08 -22.43)"/><path class="c" d="M507.28,382.08s0,13-2.89,41.93-5.06,53.5.72,75.91c13.64,52.83,27.47,41.93,23.14,58.56-3.33,12.73-20.25,18.79-29.64,13.73-4.92-2.64-6.51-5.78-21,.33-11.73,5-13.72.4-30.56-2.07-1.44-.21,5.7-27.8,12.18-38.79,14.05-23.81,8-118,4.66-106.22" transform="translate(-46.08 -22.43)"/><path class="c" d="M635.09,417.63,602,404.26l-50.18-1.09a44.72,44.72,0,0,1,83.24,14.46Z" transform="translate(-46.08 -22.43)"/><path class="c" d="M421.41,408.62l-37.19-5.26L336.3,414.2a44.73,44.73,0,0,1,85.11-5.58Z" transform="translate(-46.08 -22.43)"/><path class="f" d="M439.35,411.16l-17.94-2.54-37.19-5.26L336.3,414.2l-16.45,3.71s14.61-49.27,68.29-43.52C424.91,378.33,439.35,411.16,439.35,411.16Z" transform="translate(-46.08 -22.43)"/><path class="f" d="M653.65,425.14l-18.56-7.51L602,404.26l-50.18-1.09-15.79-.34s26.07-44.29,76.77-25.74C647.56,389.79,653.65,425.14,653.65,425.14Z" transform="translate(-46.08 -22.43)"/><path class="g" d="M489,43.88l61.19-2.66L685.84,94.43,794.92,206.17l95.78,268.7L904,935.13s-109.18,25.44-167.11,31.41c-27.4,2.82-5.82-292.13-5.82-292.13l2.66-215.5L672.54,283.32l-77.15-79.81L481,142.32Z" transform="translate(-46.08 -22.43)"/><path class="g" d="M495.14,42,432,24l-141.21,52-115,113L71.18,464.43,47.63,939.29s112.17,28.59,171.85,36c28.23,3.49,12.23-301.46,12.23-301.46l1.85-222.52,66.91-180,81.35-80.75,104.8-49.78Z" transform="translate(-46.08 -22.43)"/><polygon class="h" points="474.48 294.5 547.53 293.03 611.97 313.99 628.36 340.23 604.2 324.08 530.4 309.26 471.28 315.99 474.48 294.5"/><polygon class="h" points="398.04 294.77 324.99 293.3 260.56 314.26 244.17 340.5 268.32 324.35 342.12 309.54 401.25 316.26 398.04 294.77"/></svg>