<svg width="174" height="174" viewBox="0 0 174 174" fill="none" xmlns="http://www.w3.org/2000/svg">
<g clip-path="url(#clip0)">
<path d="M87 174C135.049 174 174 135.049 174 87C174 38.9512 135.049 0 87 0C38.9512 0 0 38.9512 0 87C0 135.049 38.9512 174 87 174Z" fill="#6D2F84"/>
<path d="M138.518 138.536C166.98 110.074 166.98 63.9265 138.518 35.4639C110.055 7.00124 63.9079 7.00124 35.4453 35.4639C6.98269 63.9265 6.98269 110.074 35.4453 138.536C63.9079 166.999 110.055 166.999 138.518 138.536Z" fill="#E2C8EF"/>
<path d="M74.7513 121.342H67.2602C65.3227 121.342 63.752 119.772 63.752 117.834V56.1659C63.752 54.2285 65.3227 52.6577 67.2602 52.6577H74.7513C76.6888 52.6577 78.2595 54.2285 78.2595 56.1659V117.834C78.2592 119.771 76.6888 121.342 74.7513 121.342Z" fill="#6D2F84"/>
<path d="M106.741 121.342H99.2494C97.312 121.342 95.7412 119.772 95.7412 117.834V56.1659C95.7412 54.2285 97.312 52.6577 99.2494 52.6577H106.741C108.678 52.6577 110.249 54.2285 110.249 56.1659V117.834C110.249 119.771 108.678 121.342 106.741 121.342Z" fill="#6D2F84"/>
</g>
<defs>
<clipPath id="clip0">
<rect width="174" height="174" fill="white"/>
</clipPath>
</defs>
</svg>
