<svg width="174" height="174" viewBox="0 0 174 174" fill="none" xmlns="http://www.w3.org/2000/svg">
<path d="M87 174C135.049 174 174 135.049 174 87C174 38.9512 135.049 0 87 0C38.9512 0 0 38.9512 0 87C0 135.049 38.9512 174 87 174Z" fill="#6D2F84"/>
<path d="M87.0001 159.894C127.258 159.894 159.894 127.258 159.894 87.0001C159.894 46.7418 127.258 14.106 87.0001 14.106C46.7418 14.106 14.106 46.7418 14.106 87.0001C14.106 127.258 46.7418 159.894 87.0001 159.894Z" fill="#E2C8EF"/>
<path d="M73.1799 120.498L118.888 91.5492C122.227 89.435 122.227 84.5647 118.888 82.4506L73.1799 53.502C69.5946 51.2315 64.9136 53.8072 64.9136 58.0511V115.948C64.9136 120.193 69.5946 122.769 73.1799 120.498V120.498Z" fill="#6D2F84"/>
</svg>
