<svg xmlns="http://www.w3.org/2000/svg" viewBox="0 0 322.03 270.22"><defs><style>.cls-1{fill:#6d2f84;stroke:#000;stroke-miterlimit:10;stroke-width:3.92px;}</style></defs><g id="Слой_2" data-name="Слой 2"><g id="screen"><path class="cls-1" d="M311.12,26.35A15.61,15.61,0,0,0,298.57,13C180.88-9.19,57.22,8,23.1,13.59A15.61,15.61,0,0,0,10.69,24.37c-20.6,67,.68,190.85,8.56,231.25a15.62,15.62,0,0,0,15.92,12.62L298,258.6a15.64,15.64,0,0,0,14.75-12.48C327.83,173.39,315.63,61.75,311.12,26.35Zm-16.19,176.1s-3,31.28-42,42.28-177,8-177,8-39.91,0-51-42-3-147-3-147-2-33,47-44,174.34,0,174.34,0,43.66,5,51.66,40S294.93,202.45,294.93,202.45Z"/></g></g></svg>