<svg id="tv" xmlns="http://www.w3.org/2000/svg" xmlns:xlink="http://www.w3.org/1999/xlink" viewBox="0 0 538.46 434.66"><defs><style>.cls-1{stroke-linecap:square;fill:url(#Безымянный_градиент_79);stroke:url(#Безымянный_градиент_31);}.cls-1,.cls-10,.cls-9{stroke-linejoin:round;}.cls-1,.cls-10,.cls-2,.cls-9{stroke-width:5px;}.cls-11,.cls-2,.cls-3,.cls-4,.cls-5,.cls-6,.cls-8{stroke-miterlimit:10;}.cls-2{fill:url(#Новый_образец_градиентной_залив);stroke:url(#Безымянный_градиент_31-2);}.cls-11,.cls-3,.cls-5,.cls-8{stroke:#000;}.cls-3{stroke-width:4px;fill:url(#Новый_образец_градиентной_залив-2);}.cls-4,.cls-8{stroke-width:2px;}.cls-4{fill:url(#Безымянный_градиент_19);stroke:url(#Новый_образец_градиентной_зал_2);}.cls-5{fill:url(#Новый_образец_градиентной_залив-3);}.cls-6,.cls-8{fill:none;}.cls-6{stroke-width:1.99px;stroke:url(#Новый_образец_градиентн_копия);}.cls-7{fill:#18183f;}.cls-10,.cls-8,.cls-9{stroke-linecap:round;}.cls-9{fill:#180a1d;stroke:url(#Безымянный_градиент_31-3);}.cls-10{fill:url(#Безымянный_градиент_98);stroke:url(#Безымянный_градиент_31-4);}.cls-11{fill:#6d2f84;stroke-width:3.92px;}</style><linearGradient id="Безымянный_градиент_79" x1="833.64" y1="337.97" x2="832.87" y2="337.97" gradientUnits="userSpaceOnUse"><stop offset="0" stop-color="#5c389c"/><stop offset="0.08" stop-color="#4c2a81"/><stop offset="0.17" stop-color="#3f1f6a"/><stop offset="0.27" stop-color="#351759"/><stop offset="0.39" stop-color="#2e104d"/><stop offset="0.56" stop-color="#2a0d46"/><stop offset="1" stop-color="#290c44"/></linearGradient><linearGradient id="Безымянный_градиент_31" x1="245.16" y1="337.97" x2="751.67" y2="337.97" gradientUnits="userSpaceOnUse"><stop offset="0" stop-color="#6d2f84"/><stop offset="1"/></linearGradient><linearGradient id="Новый_образец_градиентной_залив" x1="230.24" y1="509.61" x2="763.7" y2="509.61" gradientUnits="userSpaceOnUse"><stop offset="0" stop-color="#c880eb"/><stop offset="1" stop-color="#59369a"/></linearGradient><linearGradient id="Безымянный_градиент_31-2" x1="227.65" y1="505.05" x2="766.21" y2="514.45" xlink:href="#Безымянный_градиент_31"/><linearGradient id="Новый_образец_градиентной_залив-2" x1="252.47" y1="509.04" x2="738.22" y2="509.04" xlink:href="#Новый_образец_градиентной_залив"/><linearGradient id="Безымянный_градиент_19" x1="376.55" y1="190.97" x2="516.45" y2="322.94" xlink:href="#Новый_образец_градиентной_залив"/><linearGradient id="Новый_образец_градиентной_зал_2" x1="364.59" y1="179.69" x2="512.94" y2="319.62" gradientUnits="userSpaceOnUse"><stop offset="0"/><stop offset="1" stop-color="#59369a"/></linearGradient><linearGradient id="Новый_образец_градиентной_залив-3" x1="408.26" y1="170.66" x2="421.26" y2="170.66" xlink:href="#Новый_образец_градиентной_залив"/><linearGradient id="Новый_образец_градиентн_копия" x1="595.86" y1="250.54" x2="743.14" y2="389.46" gradientTransform="translate(-3 172)" xlink:href="#Новый_образец_градиентной_зал_2"/><linearGradient id="Безымянный_градиент_31-3" x1="421.84" y1="298.28" x2="479.23" y2="298.28" gradientTransform="matrix(-2.32, -0.72, 0.72, 1.4, 1287.75, -39.12)" xlink:href="#Безымянный_градиент_31"/><linearGradient id="Безымянный_градиент_98" x1="654.9" y1="333.71" x2="389.69" y2="260.05" gradientTransform="matrix(0.95, 0.14, 0.14, 0.61, -243.55, -196.36)" xlink:href="#Новый_образец_градиентной_зал_2"/><linearGradient id="Безымянный_градиент_31-4" x1="348.55" y1="180.96" x2="491.56" y2="180.96" gradientTransform="matrix(0.11, 1.17, 1.02, -0.27, 69.46, -387.98)" xlink:href="#Безымянный_градиент_31"/></defs><path class="cls-1" d="M749.17,355.5c-116.7-7.67-240.5-10.94-370.67-8q-66.72,1.5-130.84,5c3.92-5.15,56.54-27,61.84-27,57-3.52,117.78-5.43,182-5,66.82.45,129.93,3.4,188.89,8a23.17,23.17,0,0,1,4.38.42,23.81,23.81,0,0,1,3.58,1l47.95,17.75C737.27,348,744.75,351.35,749.17,355.5Z" transform="translate(-227.74 -242.34)"/><path class="cls-2" d="M763.5,487.5a939.67,939.67,0,0,0-10.42-121.3l-.71-5.65a6.28,6.28,0,0,0-1-2.58,10.86,10.86,0,0,0-2.16-2.47,3416.1,3416.1,0,0,0-381.67-9q-61.2,2-119.84,6l-.08.08a14.22,14.22,0,0,0-4,8.87c-.07.82-.16,1.64-.31,2.45a794.31,794.31,0,0,0,.1,286.72,16.8,16.8,0,0,1,.2,1.89,14,14,0,0,0,4.05,8.91,14.25,14.25,0,0,0,9.47,4.07l.91,0c73.94,5.53,153.32,8.89,237.54,9s163.38-3.17,237.27-8.57a22.57,22.57,0,0,0,11.61-4.19c8.06-5.85,8.12-9.41,8.12-10.19A939.57,939.57,0,0,0,763.5,487.5ZM292.08,436.9s-2-33,47-44,174.34,0,174.34,0,43.66,5,51.66,40,0,142.72,0,142.72-3,31.28-42,42.28-177,8-177,8-39.91,0-51-42S292.08,436.9,292.08,436.9Z" transform="translate(-227.74 -242.34)"/><path class="cls-3" d="M732.79,386a17.08,17.08,0,0,0-14.7-14.88c-47-6.22-217.48-24.59-442.68.32a17.07,17.07,0,0,0-15.07,15c-4.8,41.85-17.08,171.57,4.37,252.36a17,17,0,0,0,14.59,12.53c42.2,4.7,200,18.42,428.67-7A17.07,17.07,0,0,0,722.78,631C729.83,598,746.92,500.92,732.79,386ZM523.08,617.9c-39,11-177,8-177,8s-39.91,0-51-42-3-147-3-147-2-33,47-44,174.34,0,174.34,0,43.66,5,51.66,40,0,142.72,0,142.72S562.08,606.9,523.08,617.9Z" transform="translate(-227.74 -242.34)"/><rect class="cls-4" x="397.26" y="140.66" width="83" height="218" rx="9.7"/><rect x="412.26" y="151.66" width="5" height="94" rx="2.5"/><rect x="397.26" y="269.66" width="82" height="3"/><rect x="397.26" y="277.66" width="82" height="3"/><rect x="397.26" y="285.66" width="82" height="3"/><rect x="397.26" y="294.66" width="82" height="3"/><rect x="397.26" y="303.66" width="82" height="3"/><rect x="397.26" y="312.66" width="82" height="3"/><rect x="397.26" y="321.66" width="82" height="3"/><rect x="397.26" y="330.66" width="82" height="3"/><rect x="397.26" y="339.66" width="82" height="3"/><rect x="397.26" y="348.66" width="82" height="3"/><rect class="cls-5" x="408.26" y="167.66" width="13" height="6" rx="3"/><rect class="cls-6" x="626" y="383" width="81" height="218" rx="9.7" transform="translate(1105.26 741.66) rotate(180)"/><circle class="cls-7" cx="453.76" cy="168.16" r="19.5"/><circle class="cls-7" cx="453.76" cy="222.16" r="19.5"/><g id="tubler"><circle cx="454.76" cy="168.16" r="15.5"/><line class="cls-8" x1="441.26" y1="156.66" x2="448.26" y2="160.66"/><line class="cls-8" x1="437.75" y1="164.26" x2="445.78" y2="165.05"/><line class="cls-8" x1="437.79" y1="172.32" x2="445.74" y2="170.99"/><line class="cls-8" x1="441.88" y1="179.34" x2="448.65" y2="174.97"/></g><g id="tubler-2" data-name="tubler"><circle cx="454.72" cy="222.4" r="15.5"/><line class="cls-8" x1="445.71" y1="207.13" x2="451.02" y2="213.19"/><line class="cls-8" x1="439.91" y1="213.18" x2="447.24" y2="216.53"/><line class="cls-8" x1="437.32" y1="220.81" x2="445.27" y2="222.14"/><line class="cls-8" x1="438.89" y1="228.78" x2="446.72" y2="226.85"/></g><polygon class="cls-9" points="430.5 98.2 482.9 2.5 434.1 100.44 430.5 98.2"/><polygon class="cls-10" points="432.92 101.96 161.17 8.49 435.14 97.42 432.92 101.96"/><g id="screen"><path class="cls-11" d="M581.27,399.52a15.61,15.61,0,0,0-12.55-13.37c-117.69-22.17-241.35-5-275.47.61a15.61,15.61,0,0,0-12.41,10.78c-20.6,67,.68,190.85,8.56,231.25a15.62,15.62,0,0,0,15.92,12.62l262.86-9.64a15.64,15.64,0,0,0,14.75-12.48C598,546.56,585.78,434.92,581.27,399.52Zm-16.19,176.1s-3,31.28-42,42.28-177,8-177,8-39.91,0-51-42-3-147-3-147-2-33,47-44,174.34,0,174.34,0,43.66,5,51.66,40S565.08,575.62,565.08,575.62Z" transform="translate(-227.74 -242.34)"/></g></svg>