<?xml version="1.0" encoding="utf-8"?>
<!-- Generator: Adobe Illustrator 25.0.0, SVG Export Plug-In . SVG Version: 6.00 Build 0)  -->
<svg version="1.1" id="tv" xmlns="http://www.w3.org/2000/svg" xmlns:xlink="http://www.w3.org/1999/xlink" x="0px" y="0px"
	 viewBox="0 0 538.5 434.7" style="enable-background:new 0 0 538.5 434.7;" xml:space="preserve">
<style type="text/css">
	.st0{fill:url(#SVGID_1_);stroke:url(#SVGID_2_);stroke-width:5;stroke-linecap:square;stroke-linejoin:round;}
	.st1{fill:url(#SVGID_3_);stroke:url(#SVGID_4_);stroke-width:5;stroke-miterlimit:10;}
	.st2{fill:url(#SVGID_5_);stroke:#000000;stroke-width:4;stroke-miterlimit:10;}
	.st3{fill:url(#SVGID_6_);stroke:url(#SVGID_7_);stroke-width:2;stroke-miterlimit:10;}
	.st4{fill:url(#SVGID_8_);stroke:#000000;stroke-miterlimit:10;}
	.st5{fill:none;stroke:url(#SVGID_9_);stroke-width:1.99;stroke-miterlimit:10;}
	.st6{fill:#18183F;}
	.st7{fill:none;stroke:#000000;stroke-width:2;stroke-linecap:round;stroke-miterlimit:10;}
	.st8{fill:#180A1D;stroke:#6D2F84;stroke-width:5;stroke-linecap:round;stroke-linejoin:round;}
	.st9{fill:#6D2F84;stroke:#6D2F84;stroke-width:5;stroke-linecap:round;stroke-linejoin:round;}
	.st10{fill:#6D2F84;stroke:#000000;stroke-width:3.92;stroke-miterlimit:10;}
</style>
<linearGradient id="SVGID_1_" gradientUnits="userSpaceOnUse" x1="833.64" y1="98.0299" x2="832.87" y2="98.0299" gradientTransform="matrix(1 0 0 -1 -227.74 193.66)">
	<stop  offset="0" style="stop-color:#5C389C"/>
	<stop  offset="8.000000e-02" style="stop-color:#4C2A81"/>
	<stop  offset="0.17" style="stop-color:#3F1F6A"/>
	<stop  offset="0.27" style="stop-color:#351759"/>
	<stop  offset="0.39" style="stop-color:#2E104D"/>
	<stop  offset="0.56" style="stop-color:#2A0D46"/>
	<stop  offset="1" style="stop-color:#290C44"/>
</linearGradient>
<linearGradient id="SVGID_2_" gradientUnits="userSpaceOnUse" x1="245.16" y1="98.0299" x2="751.67" y2="98.0299" gradientTransform="matrix(1 0 0 -1 -227.74 193.66)">
	<stop  offset="0" style="stop-color:#6D2F84"/>
	<stop  offset="1" style="stop-color:#000000"/>
</linearGradient>
<path class="st0" d="M521.4,113.2c-116.7-7.7-240.5-10.9-370.7-8c-44.5,1-88.1,2.7-130.8,5c3.9-5.1,56.5-27,61.8-27
	c57-3.5,117.8-5.4,182-5c66.8,0.5,129.9,3.4,188.9,8c1.5,0,2.9,0.1,4.4,0.4c1.2,0.2,2.4,0.6,3.6,1l48,17.8
	C509.5,105.7,517,109,521.4,113.2z"/>
<linearGradient id="SVGID_3_" gradientUnits="userSpaceOnUse" x1="230.3158" y1="-73.6037" x2="763.7097" y2="-73.6037" gradientTransform="matrix(1 0 0 -1 -227.74 193.66)">
	<stop  offset="0" style="stop-color:#C880EB"/>
	<stop  offset="1" style="stop-color:#59369A"/>
</linearGradient>
<linearGradient id="SVGID_4_" gradientUnits="userSpaceOnUse" x1="227.7285" y1="-69.0336" x2="766.2296" y2="-78.4326" gradientTransform="matrix(1 0 0 -1 -227.74 193.66)">
	<stop  offset="0" style="stop-color:#6D2F84"/>
	<stop  offset="1" style="stop-color:#000000"/>
</linearGradient>
<path class="st1" d="M535.8,245.2c-0.8-40.6-4.3-81.1-10.4-121.3l-0.7-5.6c-0.1-0.9-0.5-1.8-1-2.6c-0.6-0.9-1.3-1.8-2.2-2.5
	c-127-10.1-254.4-13.1-381.7-9c-40.8,1.3-80.7,3.3-119.8,6l-0.1,0.1c-2.3,2.4-3.8,5.5-4,8.9c-0.1,0.8-0.2,1.6-0.3,2.5
	c-17.4,94.8-17.3,191.9,0.1,286.7c0.1,0.6,0.2,1.3,0.2,1.9c0.2,3.4,1.7,6.5,4.1,8.9c2.5,2.5,5.9,3.9,9.5,4.1h0.9
	c73.9,5.5,153.3,8.9,237.5,9s163.4-3.2,237.3-8.6c4.2-0.3,8.2-1.7,11.6-4.2c8.1-5.8,8.1-9.4,8.1-10.2
	C533.3,354.9,536.9,300.1,535.8,245.2z M64.3,194.6c0,0-2-33,47-44s174.3,0,174.3,0s43.7,5,51.7,40s0,142.7,0,142.7s-3,31.3-42,42.3
	s-177,8-177,8s-39.9,0-51-42S64.3,194.6,64.3,194.6z"/>
<linearGradient id="SVGID_5_" gradientUnits="userSpaceOnUse" x1="252.4728" y1="-73.004" x2="738.2225" y2="-73.004" gradientTransform="matrix(1 0 0 -1 -227.74 193.66)">
	<stop  offset="0" style="stop-color:#C880EB"/>
	<stop  offset="1" style="stop-color:#59369A"/>
</linearGradient>
<path class="st2" d="M505,143.7c-0.9-7.7-7-13.9-14.7-14.9c-47-6.2-217.5-24.6-442.7,0.3c-7.9,0.9-14.2,7.1-15.1,15
	C27.8,186,15.5,315.7,37,396.5c1.8,6.8,7.6,11.8,14.6,12.5c42.2,4.7,200,18.4,428.7-7c7.3-0.8,13.2-6.2,14.8-13.3
	C502.1,355.7,519.2,258.6,505,143.7z M295.3,375.6c-39,11-177,8-177,8s-39.9,0-51-42s-3-147-3-147s-2-33,47-44s174.3,0,174.3,0
	s43.7,5,51.7,40s0,142.7,0,142.7S334.3,364.6,295.3,375.6z"/>
<linearGradient id="SVGID_6_" gradientUnits="userSpaceOnUse" x1="376.5469" y1="245.0267" x2="516.4469" y2="113.0567" gradientTransform="matrix(1 0 0 -1 0 436)">
	<stop  offset="0" style="stop-color:#C880EB"/>
	<stop  offset="1" style="stop-color:#59369A"/>
</linearGradient>
<linearGradient id="SVGID_7_" gradientUnits="userSpaceOnUse" x1="364.5829" y1="256.307" x2="512.9371" y2="116.373" gradientTransform="matrix(1 0 0 -1 0 436)">
	<stop  offset="0" style="stop-color:#000000"/>
	<stop  offset="1" style="stop-color:#59369A"/>
</linearGradient>
<path class="st3" d="M407,140.7h63.6c5.4,0,9.7,4.3,9.7,9.7V349c0,5.4-4.3,9.7-9.7,9.7H407c-5.4,0-9.7-4.3-9.7-9.7V150.4
	C397.3,145,401.6,140.7,407,140.7z"/>
<path d="M414.8,151.7L414.8,151.7c1.4,0,2.5,1.1,2.5,2.5v89c0,1.4-1.1,2.5-2.5,2.5l0,0c-1.4,0-2.5-1.1-2.5-2.5v-89
	C412.3,152.8,413.4,151.7,414.8,151.7z"/>
<rect x="397.3" y="269.7" width="82" height="3"/>
<rect x="397.3" y="277.7" width="82" height="3"/>
<rect x="397.3" y="285.7" width="82" height="3"/>
<rect x="397.3" y="294.7" width="82" height="3"/>
<rect x="397.3" y="303.7" width="82" height="3"/>
<rect x="397.3" y="312.7" width="82" height="3"/>
<rect x="397.3" y="321.7" width="82" height="3"/>
<rect x="397.3" y="330.7" width="82" height="3"/>
<rect x="397.3" y="339.7" width="82" height="3"/>
<rect x="397.3" y="348.7" width="82" height="3"/>
<linearGradient id="SVGID_8_" gradientUnits="userSpaceOnUse" x1="408.26" y1="265.34" x2="421.26" y2="265.34" gradientTransform="matrix(1 0 0 -1 0 436)">
	<stop  offset="0" style="stop-color:#C880EB"/>
	<stop  offset="1" style="stop-color:#59369A"/>
</linearGradient>
<path class="st4" d="M411.3,167.7h7c1.7,0,3,1.3,3,3l0,0c0,1.7-1.3,3-3,3h-7c-1.7,0-3-1.3-3-3l0,0
	C408.3,169,409.6,167.7,411.3,167.7z"/>
<linearGradient id="SVGID_9_" gradientUnits="userSpaceOnUse" x1="77.8556" y1="603.4641" x2="225.1444" y2="464.5359" gradientTransform="matrix(-1 0 0 1 590.26 -284.34)">
	<stop  offset="0" style="stop-color:#000000"/>
	<stop  offset="1" style="stop-color:#59369A"/>
</linearGradient>
<path class="st5" d="M469.6,358.7H408c-5.4,0-9.7-4.3-9.7-9.7V150.4c0-5.4,4.3-9.7,9.7-9.7h61.6c5.4,0,9.7,4.3,9.7,9.7V349
	C479.3,354.3,474.9,358.7,469.6,358.7z"/>
<circle class="st6" cx="453.8" cy="168.2" r="19.5"/>
<circle class="st6" cx="453.8" cy="222.2" r="19.5"/>
<g id="tubler">
	<circle cx="454.8" cy="168.2" r="15.5"/>
	<line class="st7" x1="441.3" y1="156.7" x2="448.3" y2="160.7"/>
	<line class="st7" x1="437.8" y1="164.3" x2="445.8" y2="165.1"/>
	<line class="st7" x1="437.8" y1="172.3" x2="445.7" y2="171"/>
	<line class="st7" x1="441.9" y1="179.3" x2="448.6" y2="175"/>
</g>
<g id="tubler-2">
	<circle cx="454.7" cy="222.4" r="15.5"/>
	<line class="st7" x1="445.7" y1="207.1" x2="451" y2="213.2"/>
	<line class="st7" x1="439.9" y1="213.2" x2="447.2" y2="216.5"/>
	<line class="st7" x1="437.3" y1="220.8" x2="445.3" y2="222.1"/>
	<line class="st7" x1="438.9" y1="228.8" x2="446.7" y2="226.9"/>
</g>
<polygon class="st8" points="432.2,92 481.2,2.5 435.6,94.1 "/>
<polygon class="st9" points="434.8,95.6 169.3,4.3 436.9,91.2 "/>
<g id="screen">
	<path class="st10" d="M353.5,157.2c-0.8-6.7-5.9-12.1-12.5-13.4c-117.7-22.2-241.4-5-275.5,0.6c-5.8,0.9-10.7,5.1-12.4,10.8
		c-20.6,67,0.7,190.9,8.6,231.2c1.5,7.6,8.2,12.9,15.9,12.6l262.9-9.6c7.2-0.3,13.3-5.4,14.8-12.5
		C370.3,304.2,358,192.6,353.5,157.2z M337.3,333.3c0,0-3,31.3-42,42.3s-177,8-177,8s-39.9,0-51-42s-3-147-3-147s-2-33,47-44
		s174.3,0,174.3,0s43.7,5,51.7,40S337.3,333.3,337.3,333.3z"/>
</g>
</svg>
