<?xml version="1.0" encoding="utf-8"?>
<!-- Generator: Adobe Illustrator 25.0.0, SVG Export Plug-In . SVG Version: 6.00 Build 0)  -->
<svg version="1.1" id="Слой_1" xmlns="http://www.w3.org/2000/svg" xmlns:xlink="http://www.w3.org/1999/xlink" x="0px" y="0px"
	 viewBox="0 0 291 194" style="enable-background:new 0 0 291 194;" xml:space="preserve">
<style type="text/css">
	.st0{stroke:#C57EE9;stroke-width:5;stroke-miterlimit:10;}
	.st1{stroke:#C57EE9;stroke-width:4;stroke-linecap:round;stroke-linejoin:round;stroke-miterlimit:10;}
	.st2{fill:#C57EE9;}
	.st3{fill:#C880EB;}
	.st4{fill:#6D2F84;}
	.st5{fill:#7F3F97;}
	.st6{fill:none;stroke:#7F3F97;stroke-width:2;stroke-linecap:round;stroke-linejoin:round;stroke-miterlimit:10;}
</style>
<path class="st0" d="M6.43,18.7v8.93c0,0.72,0.33,1.41,0.91,1.88L170.85,164.3c0.04,0.04,0.08,0.07,0.12,0.1
	c3.42,3.23,24.01,21.91,56.11,20.69c30.44-1.15,49.02-19.35,53.51-24.17c0.42-0.45,0.65-1.03,0.65-1.64l0-11.11
	c0-1.34-0.13-4.33-1.55-4.39l-102.43,1.97c-0.57-0.02-1.11-0.21-1.56-0.55L10.76,17.74C10.5,17.5,6.43,16.6,6.43,18.7z"/>
<polygon class="st1" points="9,16.8 176.69,145 280.68,143.58 90,11.8 "/>
<g>
	<polygon class="st2" points="40.59,28.15 36.56,25.4 43.3,25.4 47.33,28.15 	"/>
	<path class="st3" d="M43.47,23.9h-8.69c-0.93,0-1.31,1.21-0.54,1.73l5.64,3.84c0.16,0.11,0.34,0.17,0.54,0.17h8.69
		c0.93,0,1.31-1.21,0.54-1.73l-5.64-3.84C43.85,23.96,43.66,23.9,43.47,23.9L43.47,23.9z"/>
</g>
<g>
	<polygon class="st4" points="112.83,80.42 108.81,77.68 115.55,77.68 119.57,80.42 	"/>
	<path class="st5" d="M115.71,76.18h-8.69c-0.93,0-1.31,1.21-0.54,1.73l5.64,3.84c0.16,0.11,0.34,0.17,0.54,0.17h8.69
		c0.93,0,1.31-1.21,0.54-1.73l-5.64-3.84C116.09,76.24,115.91,76.18,115.71,76.18L115.71,76.18z"/>
</g>
<g>
	<polygon class="st4" points="128.13,80.42 124.1,77.68 130.84,77.68 134.87,80.42 	"/>
	<path class="st5" d="M131.01,76.18h-8.69c-0.93,0-1.31,1.21-0.54,1.73l5.64,3.84c0.16,0.11,0.34,0.17,0.54,0.17h8.69
		c0.93,0,1.31-1.21,0.54-1.73l-5.64-3.84C131.39,76.24,131.2,76.18,131.01,76.18L131.01,76.18z"/>
</g>
<g>
	<polygon class="st4" points="143.42,80.42 139.39,77.68 146.13,77.68 150.15,80.42 	"/>
	<path class="st5" d="M146.3,76.18h-8.69c-0.93,0-1.31,1.21-0.54,1.73l5.64,3.84c0.16,0.11,0.34,0.17,0.54,0.17h8.69
		c0.93,0,1.31-1.21,0.54-1.73l-5.64-3.84C146.68,76.24,146.49,76.18,146.3,76.18L146.3,76.18z"/>
</g>
<g>
	<polygon class="st4" points="157.76,80.42 153.74,77.68 160.47,77.68 164.5,80.42 	"/>
	<path class="st5" d="M160.64,76.18h-8.69c-0.93,0-1.31,1.21-0.54,1.73l5.64,3.84c0.16,0.11,0.34,0.17,0.54,0.17h8.69
		c0.93,0,1.31-1.21,0.54-1.73l-5.64-3.84C161.02,76.24,160.84,76.18,160.64,76.18L160.64,76.18z"/>
</g>
<g>
	<polygon class="st4" points="126.07,89.36 122.04,86.61 128.78,86.61 132.81,89.36 	"/>
	<path class="st5" d="M128.95,85.11h-8.69c-0.93,0-1.31,1.21-0.54,1.73l5.64,3.84c0.16,0.11,0.34,0.17,0.54,0.17h8.69
		c0.93,0,1.31-1.21,0.54-1.73l-5.64-3.84C129.33,85.17,129.14,85.11,128.95,85.11L128.95,85.11z"/>
</g>
<g>
	<polygon class="st4" points="141.37,89.36 137.34,86.61 144.08,86.61 148.1,89.36 	"/>
	<path class="st5" d="M144.25,85.11h-8.69c-0.93,0-1.31,1.21-0.54,1.73l5.64,3.84c0.16,0.11,0.34,0.17,0.54,0.17h8.69
		c0.93,0,1.31-1.21,0.54-1.73l-5.64-3.84C144.63,85.17,144.44,85.11,144.25,85.11L144.25,85.11z"/>
</g>
<g>
	<polygon class="st4" points="156.65,89.36 152.63,86.61 159.37,86.61 163.39,89.36 	"/>
	<path class="st5" d="M159.54,85.11h-8.69c-0.93,0-1.31,1.21-0.54,1.73l5.64,3.84c0.16,0.11,0.34,0.17,0.54,0.17h8.69
		c0.93,0,1.31-1.21,0.54-1.73l-5.64-3.84C159.91,85.17,159.73,85.11,159.54,85.11L159.54,85.11z"/>
</g>
<g>
	<polygon class="st4" points="171,89.36 166.97,86.61 173.71,86.61 177.74,89.36 	"/>
	<path class="st5" d="M173.88,85.11h-8.69c-0.93,0-1.31,1.21-0.54,1.73l5.64,3.84c0.16,0.11,0.34,0.17,0.54,0.17h8.69
		c0.93,0,1.31-1.21,0.54-1.73l-5.64-3.84C174.26,85.17,174.07,85.11,173.88,85.11L173.88,85.11z"/>
</g>
<g>
	<polygon class="st4" points="139.33,98.3 135.3,95.55 142.04,95.55 146.07,98.3 	"/>
	<path class="st5" d="M142.21,94.05h-8.69c-0.93,0-1.31,1.21-0.54,1.73l5.64,3.84c0.16,0.11,0.34,0.17,0.54,0.17h8.69
		c0.93,0,1.31-1.21,0.54-1.73l-5.64-3.84C142.59,94.11,142.4,94.05,142.21,94.05L142.21,94.05z"/>
</g>
<g>
	<polygon class="st4" points="154.62,98.3 150.6,95.55 157.34,95.55 161.36,98.3 	"/>
	<path class="st5" d="M157.51,94.05h-8.69c-0.93,0-1.31,1.21-0.54,1.73l5.64,3.84c0.16,0.11,0.34,0.17,0.54,0.17h8.69
		c0.93,0,1.31-1.21,0.54-1.73l-5.64-3.84C157.89,94.11,157.7,94.05,157.51,94.05L157.51,94.05z"/>
</g>
<g>
	<polygon class="st4" points="169.91,98.3 165.89,95.55 172.62,95.55 176.65,98.3 	"/>
	<path class="st5" d="M172.79,94.05h-8.69c-0.93,0-1.31,1.21-0.54,1.73l5.64,3.84c0.16,0.11,0.34,0.17,0.54,0.17h8.69
		c0.93,0,1.31-1.21,0.54-1.73l-5.64-3.84C173.17,94.11,172.99,94.05,172.79,94.05L172.79,94.05z"/>
</g>
<g>
	<polygon class="st4" points="184.26,98.3 180.23,95.55 186.97,95.55 191,98.3 	"/>
	<path class="st5" d="M187.14,94.05h-8.69c-0.93,0-1.31,1.21-0.54,1.73l5.64,3.84c0.16,0.11,0.34,0.17,0.54,0.17h8.69
		c0.93,0,1.31-1.21,0.54-1.73l-5.64-3.84C187.52,94.11,187.33,94.05,187.14,94.05L187.14,94.05z"/>
</g>
<line class="st6" x1="148.99" y1="109.2" x2="170.29" y2="109.2"/>
</svg>
